<?xml version="1.0" standalone="no"?>
<!DOCTYPE svg PUBLIC "-//W3C//DTD SVG 20010904//EN"
 "http://www.w3.org/TR/2001/REC-SVG-20010904/DTD/svg10.dtd">
<svg version="1.0" xmlns="http://www.w3.org/2000/svg"
 width="820.000000pt" height="835.000000pt" viewBox="0 0 820.000000 835.000000"
 preserveAspectRatio="xMidYMid meet">

<g transform="translate(0.000000,835.000000) scale(0.100000,-0.100000)"
fill="#000000" stroke="none">
<path d="M1417 7929 c-40 -62 -614 -2180 -879 -3239 -70 -281 -74 -326 -34
-395 51 -86 137 -133 394 -215 l162 -51 0 -93 c0 -54 6 -114 15 -144 15 -50
18 -53 88 -86 155 -74 528 -155 1315 -286 261 -44 477 -82 480 -85 16 -16
-173 2 -783 74 -469 56 -644 73 -701 69 l-49 -3 65 -22 c213 -69 862 -177
1770 -293 420 -54 581 -77 590 -86 6 -7 -49 -3 -545 41 -1004 91 -1724 122
-2170 95 -121 -7 -211 -17 -203 -21 29 -16 226 -67 318 -83 221 -37 560 -61
1400 -101 1069 -50 1686 -94 2014 -141 308 -45 49 -41 -614 10 -787 61 -1370
82 -2010 73 -486 -7 -653 -24 -567 -56 153 -58 1143 -169 1662 -186 199 -7
233 -11 218 -26 -17 -17 -180 -28 -573 -39 -835 -23 -2496 -122 -2523 -149 -8
-8 17 -233 28 -251 10 -16 22 -3 28 30 6 28 8 29 34 19 59 -22 898 -28 4095
-29 1819 0 3309 -3 3311 -7 18 -29 61 -359 76 -583 19 -267 -35 -717 -93 -778
-19 -20 -191 -31 -468 -32 l-258 0 0 95 c0 107 -13 150 -55 183 -51 40 -152
41 -162 1 -11 -41 -31 -19 -114 126 -34 61 -80 136 -101 167 -21 31 -38 59
-38 62 0 3 21 -5 48 -17 68 -31 221 -32 252 -1 18 17 19 25 10 50 -14 36 -46
71 -85 92 -38 21 -355 30 -436 13 -89 -19 -119 -64 -51 -75 22 -3 51 -15 66
-27 23 -18 27 -28 22 -50 -5 -26 -3 -29 20 -29 25 0 84 -48 84 -69 0 -5 -10
-17 -22 -25 -22 -16 -22 -16 -2 -16 29 0 74 -37 74 -60 0 -11 -7 -23 -16 -28
-15 -8 -14 -12 6 -32 16 -16 21 -30 17 -53 -3 -19 2 -43 11 -59 16 -27 15 -29
-16 -61 -38 -39 -40 -47 -8 -47 37 0 49 -23 41 -78 l-6 -49 -3136 -7 c-1724
-4 -3137 -6 -3139 -4 -1 2 3 60 11 128 17 148 32 393 40 615 l5 160 -70 -230
c-157 -516 -182 -670 -132 -818 36 -102 77 -157 143 -190 54 -27 60 -28 315
-37 142 -6 1452 -14 2909 -19 1458 -6 2778 -13 2935 -16 l285 -7 55 -57 c30
-32 78 -90 105 -129 l50 -72 183 0 c100 0 182 3 182 6 0 3 -23 31 -51 62 -54
62 -115 173 -106 196 8 21 71 26 373 35 259 7 273 8 319 32 66 33 115 103 115
166 0 53 17 125 70 288 21 66 45 154 54 196 22 105 40 401 33 529 -7 127 -49
297 -109 443 -44 109 -56 131 -101 189 -33 41 -32 48 14 140 16 32 29 62 29
67 0 5 -16 19 -36 30 -61 36 -144 229 -587 1361 -135 344 -373 951 -530 1350
-157 399 -315 804 -352 900 -38 96 -72 180 -76 186 -5 6 -28 16 -51 23 -24 7
-902 294 -1953 638 -2603 852 -2565 840 -2697 878 -64 19 -139 37 -167 41 -44
6 -50 4 -64 -17z m1086 -443 c364 -123 1193 -400 1842 -616 649 -215 1306
-434 1461 -486 l280 -95 41 -117 c103 -293 887 -2544 970 -2784 47 -136 75
-236 76 -265 2 -47 1 -48 -30 -51 -36 -4 -40 3 -18 32 16 21 14 33 -17 141
-28 99 -316 932 -400 1160 -102 277 -245 680 -449 1265 -98 283 -185 529 -193
546 -13 29 -26 34 -222 98 -115 37 -357 118 -539 181 -181 62 -895 301 -1585
530 -1936 643 -1831 609 -1849 598 -37 -23 -65 -125 -376 -1343 -230 -901
-365 -1460 -365 -1510 0 -60 13 -74 82 -89 31 -7 62 -19 70 -28 12 -15 7 -16
-47 -10 -33 3 -82 14 -109 23 l-48 17 6 61 c3 33 22 129 40 211 41 176 651
2661 668 2717 8 26 17 38 30 38 10 0 316 -101 681 -224z m1604 -932 c31 -31
28 -68 -14 -153 -27 -56 -216 -261 -229 -249 -10 10 15 49 95 148 42 52 87
109 99 127 l23 32 -21 11 c-52 28 -405 -58 -698 -169 -155 -59 -392 -163 -392
-172 0 -8 388 -258 456 -293 29 -15 68 -29 87 -33 44 -7 175 31 184 53 3 9 -2
59 -11 112 -19 106 -26 279 -13 300 7 11 12 11 24 0 32 -26 53 -91 53 -166 0
-46 7 -93 20 -130 24 -68 81 -154 113 -171 46 -25 75 -105 42 -117 -8 -3 -46
1 -84 10 -38 9 -101 16 -138 16 l-68 -1 50 -45 c112 -101 377 -294 403 -294
18 0 12 109 -18 346 -24 189 -37 250 -58 270 -15 15 -17 15 -34 -6 -10 -12
-18 -36 -18 -54 0 -63 -14 -63 -76 0 -55 53 -57 58 -36 62 13 2 32 -4 41 -12
27 -25 40 -19 57 23 12 31 22 41 42 43 20 2 28 9 30 28 8 81 13 91 35 88 16
-2 32 -23 59 -78 48 -96 57 -130 33 -130 -16 0 -17 -9 -11 -100 8 -130 33
-318 47 -358 15 -44 40 -41 106 9 29 23 53 42 53 43 0 1 -18 130 -40 287 -81
579 -94 739 -60 739 5 0 27 -37 50 -82 33 -67 40 -89 34 -113 -14 -58 -4 -203
30 -440 82 -564 76 -635 -58 -694 -72 -33 -75 -39 -76 -151 -1 -80 -12 -166
-24 -177 -15 -15 -26 19 -40 125 -8 61 -22 127 -31 144 -9 18 -39 49 -68 70
-29 20 -115 88 -192 152 -166 138 -180 143 -135 56 43 -85 43 -158 0 -213 -28
-35 -155 -98 -294 -146 -149 -52 -205 -82 -261 -142 -38 -41 -45 -54 -45 -89
0 -113 102 -203 245 -217 82 -7 127 2 165 34 61 51 88 145 55 189 -26 34 -17
50 55 97 76 51 94 77 104 151 7 56 20 76 48 76 24 0 50 -59 46 -103 -2 -24 -9
-32 -32 -38 -60 -16 -115 -88 -120 -159 -4 -47 -31 -107 -84 -189 -16 -23 -15
-23 8 -17 14 4 79 34 145 66 135 65 225 136 225 176 0 14 -23 74 -51 135 -27
61 -53 133 -56 160 -5 45 -4 49 15 49 22 0 72 -52 97 -101 20 -38 45 -176 45
-247 0 -60 -15 -95 -57 -133 -39 -37 -133 -97 -234 -152 -142 -77 -169 -122
-110 -186 33 -35 73 -41 122 -15 17 8 86 69 154 134 155 148 181 166 379 265
l161 80 0 105 c1 120 18 169 69 201 59 37 123 -7 151 -104 18 -61 17 -62 -38
-176 -53 -109 -50 -115 66 -119 48 -1 96 2 107 8 54 29 51 110 -25 665 -87
633 -103 791 -82 812 14 13 74 -63 91 -115 19 -54 21 -92 4 -92 -17 0 -5 -146
52 -595 28 -220 54 -452 57 -515 5 -104 4 -119 -15 -156 -38 -76 -115 -124
-196 -124 -60 0 -92 13 -144 62 -39 36 -48 40 -82 35 -59 -8 -216 -82 -320
-152 -52 -35 -147 -112 -210 -171 -109 -101 -171 -143 -213 -144 -38 0 -88 34
-124 84 -56 78 -85 106 -109 106 -14 0 -25 -8 -29 -20 -8 -24 11 -60 30 -60
18 0 18 -5 5 -31 -12 -22 -45 -25 -53 -5 -3 7 -9 35 -12 60 -8 54 -27 66 -98
66 -105 0 -204 85 -238 205 -11 38 -25 80 -30 93 l-9 23 -36 -21 c-69 -43
-157 -11 -225 83 -37 52 -37 89 1 202 17 49 28 96 25 105 -3 9 -26 31 -51 48
-50 36 -84 96 -84 152 0 19 12 67 26 105 39 108 52 154 63 223 10 62 30 110
91 222 16 30 30 64 30 75 0 39 21 95 47 125 57 68 459 232 813 333 161 46 204
55 268 56 44 1 57 -3 79 -25z"/>
<path d="M2890 5933 c-32 -49 -46 -102 -36 -129 5 -13 14 -15 42 -9 42 7 43
11 -29 -88 -124 -170 -154 -276 -99 -338 38 -42 72 -41 160 5 111 59 440 322
422 339 -3 2 -90 63 -194 136 -114 79 -198 131 -212 131 -18 0 -32 -12 -54
-47z"/>
<path d="M3296 5522 c-76 -59 -175 -135 -220 -170 -45 -34 -100 -72 -123 -83
-24 -11 -52 -34 -64 -51 -31 -43 -59 -141 -59 -204 0 -45 4 -59 25 -79 13 -14
30 -25 37 -25 40 0 97 28 184 90 113 81 218 137 394 210 197 82 240 106 240
134 0 27 -69 124 -126 177 -44 40 -134 109 -143 109 -3 0 -69 -48 -145 -108z"/>
<path d="M4018 2203 c12 -2 32 -2 45 0 12 2 2 4 -23 4 -25 0 -35 -2 -22 -4z"/>
<path d="M310 2073 c0 -53 2 -94 5 -91 3 3 9 38 13 79 l7 74 95 6 c52 4 1139
8 2415 10 1276 1 2275 6 2220 9 -55 4 -1147 8 -2427 9 l-2328 1 0 -97z"/>
</g>
</svg>
